# Blender 4.0.2
# www.blender.org
mtllib model.mtl
o cube
v 1.501471 1.999875 8.460832
v 4.562943 1.999875 1.069795
v 1.501471 -6.000125 8.460833
v 4.562943 -6.000125 1.069796
v -2.828103 1.999874 -1.991672
v -5.889574 1.999875 5.399364
v -2.828103 -6.000126 -1.991672
v -5.889574 -6.000125 5.399365
v -0.312738 -5.999125 -0.096230
v -0.312738 -5.999126 -5.096230
v -0.312738 -6.000125 -0.096230
v -0.312738 -6.000126 -5.096230
v -1.312739 -5.999126 -5.096230
v -1.312739 -5.999125 -0.096230
v -1.312739 -6.000126 -5.096230
v -1.312739 -6.000125 -0.096230
v 0.187263 -4.000126 -5.095230
v 0.187263 -4.000126 -5.096230
v 0.187263 -6.000126 -5.095230
v 0.187263 -6.000126 -5.096230
v -1.812740 -4.000126 -5.096230
v -1.812740 -4.000126 -5.095230
v -1.812740 -6.000126 -5.096230
v -1.812740 -6.000126 -5.095230
v 2.151135 -5.999125 1.338557
v 5.686672 -5.999126 -2.196977
v 2.151135 -6.000125 1.338557
v 5.686672 -6.000126 -2.196977
v 4.979566 -5.999126 -2.904084
v 1.444028 -5.999125 0.631450
v 4.979566 -6.000126 -2.904084
v 1.444028 -6.000125 0.631450
v 6.039521 -4.000126 -1.842717
v 6.040226 -4.000126 -1.843424
v 6.039521 -6.000126 -1.842717
v 6.040226 -6.000126 -1.843424
v 4.626011 -4.000126 -3.257638
v 4.625304 -4.000126 -3.256930
v 4.626011 -6.000126 -3.257638
v 4.625304 -6.000126 -3.256930
v -0.122118 11.999874 4.541142
v 0.643249 11.999874 2.693383
v -0.122118 1.999875 4.541143
v 0.643249 1.999875 2.693384
v -1.204512 11.999874 1.928016
v -1.969880 11.999874 3.775775
v -1.204512 1.999875 1.928017
v -1.969880 1.999875 3.775776
v -1.969880 7.999875 3.775775
v -1.204512 7.999875 1.928016
v -1.969880 5.999875 3.775775
v -1.204512 5.999875 1.928017
v -3.976154 7.999875 0.779966
v -4.741522 7.999875 2.627725
v -3.976154 5.999875 0.779966
v -4.741522 5.999875 2.627725
v -1.969880 10.999874 3.775775
v -1.204512 10.999874 1.928016
v -1.969880 8.999874 3.775775
v -1.204512 8.999874 1.928016
v -3.976154 10.999874 0.779966
v -4.741522 10.999874 2.627725
v -3.976154 8.999874 0.779966
v -4.741522 8.999874 2.627725
vn 0.9239 -0.0000 0.3827
vn -0.9239 -0.0000 -0.3827
vn -0.0000 1.0000 -0.0000
vn -0.0000 -1.0000 -0.0000
vn -0.3827 -0.0000 0.9239
vn 0.3827 -0.0000 -0.9239
vn 1.0000 -0.0000 -0.0000
vn -1.0000 -0.0000 -0.0000
vn -0.0000 -0.0000 1.0000
vn -0.0000 -0.0000 -1.0000
vn 0.7070 -0.0000 0.7072
vn 0.7074 -0.0000 0.7068
vn -0.7070 -0.0000 -0.7072
vn -0.7074 -0.0000 -0.7068
vn -0.7068 -0.0000 0.7074
vn -0.7073 -0.0000 0.7069
vn 0.7073 -0.0000 -0.7069
vn 0.7071 -0.0000 0.7071
vn -0.7071 -0.0000 -0.7071
vn -0.7071 -0.0000 0.7071
vn 0.7071 -0.0000 -0.7071
vt 0.000000 0.875000
vt 0.000000 0.750000
vt 0.125000 0.875000
vt 0.125000 0.750000
vt 0.250000 0.875000
vt 0.250000 0.750000
vt 0.375000 0.875000
vt 0.375000 0.750000
vt 0.250000 1.000000
vt 0.125000 1.000000
vt 0.375000 1.000000
vt 0.500000 0.875000
vt 0.500000 0.750000
vt 0.031250 0.484375
vt 0.046875 0.484375
vt 0.031250 0.406250
vt 0.046875 0.406250
vt 0.015625 0.406250
vt 0.000000 0.406250
vt 0.015625 0.484375
vt 0.000000 0.484375
vt 0.062500 0.484375
vt 0.062500 0.406250
vt 0.015625 0.500000
vt 0.031250 0.500000
vt 0.046875 0.500000
vt 0.093750 0.515625
vt 0.140625 0.515625
vt 0.093750 0.500000
vt 0.140625 0.500000
vt 0.000000 0.500000
vt 0.046875 0.515625
vt 0.000000 0.515625
vt 0.187500 0.515625
vt 0.187500 0.500000
vt 0.046875 0.562500
vt 0.093750 0.562500
vt 0.140625 0.562500
vt 0.000000 0.718750
vt 0.000000 0.562500
vt 0.031250 0.718750
vt 0.031250 0.562500
vt 0.062500 0.718750
vt 0.062500 0.562500
vt 0.093750 0.718750
vt 0.062500 0.750000
vt 0.031250 0.750000
vt 0.093750 0.750000
vt 0.125000 0.718750
vt 0.125000 0.562500
vt 0.187500 0.531250
vt 0.218750 0.531250
vt 0.218750 0.500000
vt 0.265625 0.531250
vt 0.265625 0.500000
vt 0.296875 0.531250
vt 0.296875 0.500000
vt 0.265625 0.562500
vt 0.218750 0.562500
vt 0.312500 0.562500
vt 0.312500 0.531250
vt 0.343750 0.531250
vt 0.343750 0.500000
vt 0.375000 0.531250
vt 0.375000 0.500000
vt 0.421875 0.531250
vt 0.421875 0.500000
vt 0.453125 0.531250
vt 0.453125 0.500000
vt 0.421875 0.562500
vt 0.375000 0.562500
vt 0.468750 0.562500
vt 0.468750 0.531250
vt 0.500000 0.531250
vt 0.500000 0.500000
s 0
usemtl 0
f 1/1/1 3/2/1 2/3/1
f 3/2/1 4/4/1 2/3/1
f 5/5/2 7/6/2 6/7/2
f 7/6/2 8/8/2 6/7/2
f 5/5/3 6/9/3 2/3/3
f 6/9/3 1/10/3 2/3/3
f 8/11/4 7/7/4 3/9/4
f 7/7/4 4/5/4 3/9/4
f 6/7/5 8/8/5 1/12/5
f 8/8/5 3/13/5 1/12/5
f 2/3/6 4/4/6 5/5/6
f 4/4/6 7/6/6 5/5/6
f 9/14/7 11/15/7 10/16/7
f 11/15/7 12/17/7 10/16/7
f 13/18/8 15/19/8 14/20/8
f 15/19/8 16/21/8 14/20/8
f 13/18/3 14/20/3 10/16/3
f 14/20/3 9/14/3 10/16/3
f 16/22/4 15/23/4 11/15/4
f 15/23/4 12/17/4 11/15/4
f 14/20/9 16/24/9 9/14/9
f 16/24/9 11/25/9 9/14/9
f 10/15/10 12/26/10 13/14/10
f 12/26/10 15/25/10 13/14/10
f 17/27/7 19/28/7 18/29/7
f 19/28/7 20/30/7 18/29/7
f 21/26/8 23/31/8 22/32/8
f 23/31/8 24/33/8 22/32/8
f 21/26/3 22/32/3 18/29/3
f 22/32/3 17/27/3 18/29/3
f 24/34/4 23/35/4 19/28/4
f 23/35/4 20/30/4 19/28/4
f 22/32/9 24/36/9 17/27/9
f 24/36/9 19/37/9 17/27/9
f 18/28/10 20/38/10 21/27/10
f 20/38/10 23/37/10 21/27/10
f 25/20/11 27/21/11 26/18/11
f 27/21/12 28/19/12 26/18/12
f 29/16/13 31/17/13 30/14/13
f 31/17/14 32/15/14 30/14/14
f 29/16/3 30/14/3 26/18/3
f 30/14/3 25/20/3 26/18/3
f 32/15/4 31/17/4 27/22/4
f 31/17/4 28/23/4 27/22/4
f 30/14/15 32/25/15 25/20/15
f 32/25/16 27/24/16 25/20/16
f 26/14/17 28/25/17 29/15/17
f 28/25/17 31/26/17 29/15/17
f 33/32/18 35/33/18 34/26/18
f 35/33/18 36/31/18 34/26/18
f 37/29/13 39/30/13 38/27/13
f 39/30/19 40/28/19 38/27/19
f 37/29/3 38/27/3 34/26/3
f 38/27/3 33/32/3 34/26/3
f 40/28/4 39/30/4 35/34/4
f 39/30/4 36/35/4 35/34/4
f 38/27/20 40/37/20 33/32/20
f 40/37/20 35/36/20 33/32/20
f 34/27/21 36/37/21 37/28/21
f 36/37/21 39/38/21 37/28/21
f 41/39/1 43/40/1 42/41/1
f 43/40/1 44/42/1 42/41/1
f 45/43/2 47/44/2 46/45/2
f 47/44/2 48/37/2 46/45/2
f 45/43/3 46/46/3 42/41/3
f 46/46/3 41/47/3 42/41/3
f 48/48/4 47/45/4 43/46/4
f 47/45/4 44/43/4 43/46/4
f 46/45/5 48/37/5 41/49/5
f 48/37/5 43/50/5 41/49/5
f 42/41/6 44/42/6 45/43/6
f 44/42/6 47/44/6 45/43/6
f 49/51/1 51/35/1 50/52/1
f 51/35/1 52/53/1 50/52/1
f 53/54/2 55/55/2 54/56/2
f 55/55/2 56/57/2 54/56/2
f 53/54/3 54/58/3 50/52/3
f 54/58/3 49/59/3 50/52/3
f 56/60/4 55/61/4 51/58/4
f 55/61/4 52/54/4 51/58/4
f 54/56/5 56/57/5 49/62/5
f 56/57/5 51/63/5 49/62/5
f 50/52/6 52/53/6 53/54/6
f 52/53/6 55/55/6 53/54/6
f 57/62/1 59/63/1 58/64/1
f 59/63/1 60/65/1 58/64/1
f 61/66/2 63/67/2 62/68/2
f 63/67/2 64/69/2 62/68/2
f 61/66/3 62/70/3 58/64/3
f 62/70/3 57/71/3 58/64/3
f 64/72/4 63/73/4 59/70/4
f 63/73/4 60/66/4 59/70/4
f 62/68/5 64/69/5 57/74/5
f 64/69/5 59/75/5 57/74/5
f 58/64/6 60/65/6 61/66/6
f 60/65/6 63/67/6 61/66/6
